<svg xmlns="http://www.w3.org/2000/svg" viewBox="0 0 1200 320" preserveAspectRatio="xMidYMid slice" role="img" aria-label="Decorative clinical-form banner">
  <defs>
    <linearGradient id="g" x1="0" y1="0" x2="1" y2="1">
      <stop offset="0" stop-color="#0c4a6e"/><stop offset="0.5" stop-color="#1e6fb8"/><stop offset="1" stop-color="#0891b2"/>
    </linearGradient>
    <pattern id="grid" width="40" height="40" patternUnits="userSpaceOnUse">
      <path d="M 40 0 L 0 0 0 40" fill="none" stroke="rgba(255,255,255,0.06)" stroke-width="1"/>
    </pattern>
  </defs>
  <rect width="1200" height="320" fill="url(#g)"/>
  <rect width="1200" height="320" fill="url(#grid)"/>
  <!-- Stylized form rows -->
  <g transform="translate(72,80)" opacity="0.85">
    <g fill="rgba(255,255,255,0.18)">
      <rect x="0"   y="0"  width="220" height="14" rx="3"/>
      <rect x="0"   y="36" width="280" height="14" rx="3"/>
      <rect x="0"   y="72" width="160" height="14" rx="3"/>
      <rect x="0"   y="108" width="240" height="14" rx="3"/>
    </g>
    <g fill="rgba(255,255,255,0.32)">
      <circle cx="280"  cy="7"   r="7"/>
      <circle cx="320"  cy="7"   r="7"/>
      <circle cx="360"  cy="7"   r="7" stroke="white" stroke-width="2" fill="rgba(255,255,255,0.85)"/>
      <circle cx="280"  cy="43"  r="7"/>
      <circle cx="320"  cy="43"  r="7" stroke="white" stroke-width="2" fill="rgba(255,255,255,0.85)"/>
      <circle cx="360"  cy="43"  r="7"/>
      <circle cx="220"  cy="79"  r="7" stroke="white" stroke-width="2" fill="rgba(255,255,255,0.85)"/>
      <circle cx="260"  cy="79"  r="7"/>
      <circle cx="300"  cy="79"  r="7"/>
      <circle cx="340"  cy="79"  r="7"/>
    </g>
  </g>
  <!-- FHIR-ish flame, abstract -->
  <g transform="translate(960,40)" opacity="0.95">
    <path d="M120 0 C140 60 60 70 90 140 C100 180 80 210 120 240 C30 220 -10 130 50 60 C80 30 100 20 120 0Z"
          fill="rgba(255,255,255,0.18)" stroke="rgba(255,255,255,0.55)" stroke-width="2"/>
    <path d="M120 30 C135 70 80 90 100 140 C110 170 95 195 120 220 C70 200 50 140 80 95 C95 70 110 50 120 30Z"
          fill="rgba(255,255,255,0.35)"/>
  </g>
</svg>
